# xmcd
#
# Track frame offsets:
#	150
#	15547
#	33370
#	51562
#	65868
#	89092
#	111274
#	126563
#	147038
#	160323
#	176827
#	206129
#	221308
#	238367
#	250008
#
# Disc length: 3529 seconds
#
# Revision: 1
# Processed by: cddbd v1.5.1PL2 Copyright (c) Steve Scherf et al.
# Submitted via: audiograbber 1.83.01
#
DISCID=ec0dc70f
DTITLE=Wilson Pain - Espelho da Paixão
DYEAR=2005
DGENRE=Gaúho
TTITLE0=Tchê Coração
TTITLE1=Saudade Doida
TTITLE2=Se Eu Te Encontrar Amanhã
TTITLE3=Desejo de Paixão
TTITLE4=Além dos Lençóis
TTITLE5=Ela e o Rancho
TTITLE6=Pra Falar de Amor
TTITLE7=Espelho da Paixão
TTITLE8=Tempo, Pirraça, Perfume e Dor
TTITLE9=Coisas Pra Contar
TTITLE10=Rancho Pinheiral
TTITLE11=Para Quem Tem um Amor Distante
TTITLE12=Quando o Gaiteiro Toca
TTITLE13=Quando o Coração se Apaixona
TTITLE14=Coração Estradeiro
EXTD=
EXTT0=
EXTT1=
EXTT2=
EXTT3=
EXTT4=
EXTT5=
EXTT6=
EXTT7=
EXTT8=
EXTT9=
EXTT10=
EXTT11=
EXTT12=
EXTT13=
EXTT14=
PLAYORDER=
